<svg width="266" height="266" viewBox="0 0 266 266" fill="none" xmlns="http://www.w3.org/2000/svg">
<rect width="266" height="266" rx="25" fill="#FFFF00"/>
<path d="M85.8867 165.184L113.23 162.352C114.012 168.536 116.323 173.452 120.164 177.098C124.005 180.678 128.432 182.469 133.445 182.469C139.174 182.469 144.025 180.158 147.996 175.535C151.967 170.848 153.953 163.816 153.953 154.441C153.953 145.652 151.967 139.077 147.996 134.715C144.09 130.288 138.979 128.074 132.664 128.074C124.786 128.074 117.723 131.557 111.473 138.523L89.207 135.301L103.27 60.7891H175.828V86.4727H124.07L119.773 110.789C125.893 107.729 132.143 106.199 138.523 106.199C150.698 106.199 161.017 110.626 169.48 119.48C177.944 128.335 182.176 139.826 182.176 153.953C182.176 165.737 178.758 176.251 171.922 185.496C162.612 198.126 149.689 204.441 133.152 204.441C119.936 204.441 109.161 200.893 100.828 193.797C92.4948 186.701 87.5143 177.163 85.8867 165.184Z" fill="black"/>
</svg>
